<?xml-stylesheet href="./gh/preview.xsl" type="text/xsl" ?><svg xmlns="http://www.w3.org/2000/svg" xmlns:xlink="http://www.w3.org/1999/xlink" preserveAspectRatio="xMidYMid" width="24" height="24" viewBox="0 0 24 24" xml:lang="en-US"><title id="label-gonfanon">Gonfanôn Icons</title><desc>Free and modern SVG icon theme designed for webapps.</desc><defs><symbol id="icon-square"><title id="label-square">Square Shape</title><path d="M4 4h16v16H4z"/></symbol><symbol id="icon-circle"><title id="label-circle">Circle Shape</title><circle cx="12" cy="12" r="10"/></symbol><symbol id="icon-triangle"><title id="label-triangle">Equilateral Triangle Shape</title><path d="M12 3l10 18H2z"/></symbol><symbol id="icon-hexa"><title id="label-hexa">Hexagon Shape</title><path d="M7 3h10l5 9-5 9H7l-5-9z"/></symbol><symbol id="icon-star"><title id="label-star">Star Shape</title><desc>Five pointed star</desc><path d="M2.5 9h19L12 16z"/><path d="M12 2l6 18-6-4-6 4z"/></symbol><clipPath id="shape-cloud-mask"><path d="M0 0h24v14H0z"/></clipPath><symbol id="icon-cloud"><title id="label-cloud">Cloud Shape</title><g clip-path="url(#shape-cloud-mask)" stroke-width="0" opacity=".6"><circle cx="12" cy="8" r="6"/><circle cx="7" cy="12" r="5"/><circle cx="18" cy="12" r="4"/><path d="M2 12h20v10H2z"/></g></symbol><symbol id="icon-receptacle"><title id="label-receptacle">Receptacle Symbol</title><desc id="desc-receptacle">Box with flanges</desc><path d="M2 15h2v7H2zM20 15h2v7h-2z"/><path d="M2 18h20v4H2z"/></symbol><symbol id="icon-balloon"><title id="label-balloon">Speech Balloon Shape</title><ellipse cx="12" cy="9.5" rx="10" ry="7.5"/><path d="M12 12v5l-8 3z"/></symbol></defs><defs><symbol id="icon-arrhead"><title id="label-arrhead">Arrowhead Symbol</title><path d="M12 6h1l9 6-9 6h-1z"/></symbol><symbol id="icon-large-arrhead"><title id="label-large-arrhead">Large Arrowhead Symbol</title><path d="M12 4h2l8 8-8 8h-2z"/></symbol><symbol id="icon-small-arrhead"><title id="label-small-arrhead">Small arrowhead Symbol</title><path d="M17 7l5 5-5 5z"/></symbol><symbol id="icon-tiny-arrhead"><title id="label-tiny-arrhead">Tiny Arrowhead Symbol</title><path d="M18 8l4 4-4 4z"/></symbol><symbol id="icon-chevron"><title id="label-chevron">Angle Bracket Ornament</title><path d="M12 6l2-2 8 8-8 8-2-2 6-6z"/></symbol><symbol id="icon-large-chevron"><title id="label-large-chevron">Large Angle Bracket Ornament</title><path d="M10 4l2-2 10 10-10 10-2-2 8-8z"/></symbol><symbol id="icon-small-chevron"><title id="label-small-chevron">Small Angle Bracket Ornament</title><path d="M17 8h2l3 4-3 4h-2l3-4z"/></symbol></defs><defs><symbol id="icon-arr"><title id="label-arr">Arrow Shape</title><path id="shape-shaft" d="M2 10h16v4H2z"/><use xlink:href="#icon-arrhead"/></symbol><symbol id="icon-arr-medium"><title id="label-arr-medium">Medium Arrow Shape</title><path id="shape-shaft-medium" d="M6 10h12v4H6z"/><use xlink:href="#icon-arrhead"/></symbol><symbol id="icon-large-arr"><title id="label-large-arr">Large Arrow Shape</title><path id="shape-large-shaft" d="M2 8h16v8H2z"/><use xlink:href="#icon-large-arrhead"/></symbol><symbol id="icon-larr"><title id="label-larr">Long Arrow Shape</title><path id="shape-long-shaft" d="M2 11h18v2H2z"/><use xlink:href="#icon-tiny-arrhead"/></symbol><symbol id="icon-thin-arr"><title id="label-thin-arr">Thin Arrow Shape</title><path id="shape-thin-shaft" d="M6 11h12v2H6z"/><use xlink:href="#icon-tiny-arrhead"/></symbol><symbol id="icon-sarr"><title id="label-sarr">Short Arrow Shape</title><path id="shape-short-shaft" d="M12 11h8v2h-8z"/><use xlink:href="#icon-tiny-arrhead"/></symbol><symbol id="icon-short-bold-arr"><title id="label-short-bold-arr">Short and Bold Arrow Shape</title><path id="shape-shortbold-shaft" d="M12 10h8v4h-8z"/><use xlink:href="#icon-small-arrhead"/></symbol><symbol id="icon-arr-alt"><title id="label-arr-alt">Arrow Shape</title><use xlink:href="#shape-shaft"/><use xlink:href="#icon-chevron"/></symbol><symbol id="icon-large-arr-alt"><title id="label-large-arr-alt">Large Arrow Shape</title><use xlink:href="#shape-large-shaft"/><use xlink:href="#icon-large-chevron"/></symbol><symbol id="icon-larr-alt"><title id="label-larr-alt">Long Arrow Shape</title><use xlink:href="#shape-long-shaft"/><use xlink:href="#icon-small-chevron"/></symbol><symbol id="icon-thin-arr-alt"><title id="label-thin-arr-alt">Thin Arrow Shape</title><path d="M6 11h14v2H6z"/><use xlink:href="#icon-small-chevron"/></symbol><symbol id="icon-sarr-alt"><title id="label-sarr-alt">Short Arrow Shape</title><use xlink:href="#shape-short-shaft"/><use xlink:href="#icon-small-chevron"/></symbol><symbol id="icon-short-bold-arr-alt"><title id="label-short-bold-arr-alt">Short and Bold Arrow Shape</title><use xlink:href="#shape-shortbold-shaft"/><use xlink:href="#icon-small-chevron"/></symbol><symbol id="icon-bidirectional-arr"><title id="label-bidirectional-arr">Bidirectional Arrow Shape</title><desc id="desc-bidirectional-arr">Arrow with two points to opposite direction.</desc><use xlink:href="#icon-sarr"/><use xlink:href="#icon-sarr" transform="rotate(180 12 12)"/></symbol><symbol id="icon-bidirectional-arr-alt"><title id="label-bidirectional-arr-alt">Bidirectional Arrow Shape</title><desc id="desc-bidirectional-arr-alt">Arrow with two points to opposite direction.</desc><use xlink:href="#icon-sarr-alt"/><use xlink:href="#icon-sarr-alt" transform="rotate(180 12 12)"/></symbol><symbol id="icon-crossed-arr"><title id="label-crossed-arr">Left-Right-Up-Down Arrows Shape</title><desc id="desc-crossed-arr">Two perpendicular arrows with two points to opposite direction.</desc><use xlink:href="#icon-bidirectional-arr"/><use xlink:href="#icon-bidirectional-arr" transform="rotate(90 12 12)"/></symbol><symbol id="icon-crossed-arr-alt"><title id="label-crossed-arr-alt">North-West North-East South-East South-West Arrows Shape</title><desc id="desc-crossed-arr-alt">Two perpendicular arrows in diagonals with two points to opposite direction.</desc><path id="shape-diag-arr" d="M4 4h6L8 6l6 6-2 2-6-6-2 2z"/><use xlink:href="#shape-diag-arr" transform="rotate(90 12 12)"/><use xlink:href="#shape-diag-arr" transform="rotate(180 12 12)"/><use xlink:href="#shape-diag-arr" transform="rotate(-90 12 12)"/></symbol><symbol id="icon-2h-arr"><title id="label-2h-arr">Two Headed Arrow Shape</title><use xlink:href="#icon-sarr"/><use xlink:href="#icon-sarr" x="-4"/></symbol><symbol id="icon-2h-arr-alt"><title id="label-2h-arr-alt">Two Headed Arrow Shape</title><use xlink:href="#icon-sarr-alt"/><use xlink:href="#icon-sarr-alt" x="-4"/></symbol><symbol id="icon-darr"><title id="label-darr">Two Stacked Arrows Shape</title><use xlink:href="#icon-sarr" x="-4" y="-4"/><use xlink:href="#icon-sarr" x="-4" y="4"/></symbol><symbol id="icon-darr-alt"><title id="label-darr-alt">Two Stacked Arrows Shape</title><use xlink:href="#icon-sarr-alt" x="-4" y="-4"/><use xlink:href="#icon-sarr-alt" x="-4" y="4"/></symbol><symbol id="icon-arr-out"><title id="label-arr-out">Extraction Arrows Symbol</title><use xlink:href="#icon-darr"/><path id="shape-arr-wall" d="M2 4h4v16H2z"/></symbol><symbol id="icon-arr-out-alt"><title id="label-arr-out-alt">Extraction Arrows Symbol</title><use xlink:href="#icon-darr-alt"/><use xlink:href="#shape-arr-wall"/></symbol><symbol id="icon-arr-in"><title id="label-arr-in">Insertion Arrows Symbol</title><use xlink:href="#icon-darr" x="-2"/><use xlink:href="#shape-arr-wall" x="16"/></symbol><symbol id="icon-arr-in-alt"><title id="label-arr-in-alt">Insertion Arrows Symbol</title><use xlink:href="#icon-darr-alt" x="-2"/><use xlink:href="#shape-arr-wall" x="16"/></symbol><symbol id="icon-evolve"><title id="label-evolve">Speed Arrows Symbol</title><desc id="desc-evolve">Two stacked arrows in same direction but with an offset.</desc><use xlink:href="#icon-sarr" x="-4" y="-4"/><use xlink:href="#icon-sarr" y="4"/></symbol><symbol id="icon-evolve-alt"><title id="label-evolve-alt">Speed Arrows Symbol</title><desc id="desc-evolve-alt">Two stacked arrows in same direction but with an offset.</desc><use xlink:href="#icon-sarr-alt" x="-4" y="-4"/><use xlink:href="#icon-sarr-alt" y="4"/></symbol><symbol id="icon-two-way"><title id="label-two-way">Both Direction Arrow Shape</title><desc id="desc-two-way">Two stacked arrows to opposite direction.</desc><use xlink:href="#icon-larr" y="-4"/><use xlink:href="#icon-larr" y="-4" transform="rotate(180 12 12)"/></symbol><symbol id="icon-two-way-alt"><title id="label-two-way-alt">Both Direction Arrow Shape</title><desc id="desc-two-way-alt">Two stacked arrows to opposite direction.</desc><use xlink:href="#icon-larr-alt" y="-4"/><use xlink:href="#icon-larr-alt" y="-4" transform="rotate(180 12 12)"/></symbol><symbol id="icon-exchange"><title id="label-exchange">Bidirectional Arrows Shape</title><desc id="desc-exchange">Two stacked short arrows to opposite direction.</desc><use xlink:href="#icon-short-bold-arr" y="-3" x="-2"/><use xlink:href="#icon-short-bold-arr" y="-3" x="-2" transform="rotate(180 12 12)"/></symbol><symbol id="icon-exchange-alt"><title id="label-exchange-alt">Bidirectional Arrows Shape</title><desc id="desc-exchange-alt">Two stacked short arrows to opposite direction.</desc><use xlink:href="#icon-short-bold-arr-alt" y="-3" x="-2"/><use xlink:href="#icon-short-bold-arr-alt" y="-3" x="-2" transform="rotate(180 12 12)"/></symbol><symbol id="icon-exchange-async"><title id="label-exchange-async">Bidirectional Arrows Shape</title><desc id="desc-exchange-async">Two stacked short arrows to opposite direction.</desc><use xlink:href="#icon-sarr" y="-4" x="-2"/><use xlink:href="#icon-sarr" y="-4" x="-2" transform="rotate(180 12 12)"/></symbol><symbol id="icon-exchange-async-alt"><title id="label-exchange-async-alt">Bidirectional Arrows Shape</title><desc id="desc-exchange-async-alt">Two stacked short arrows to opposite direction.</desc><use xlink:href="#icon-sarr-alt" y="-4" x="-2"/><use xlink:href="#icon-sarr-alt" y="-4" x="-2" transform="rotate(180 12 12)"/></symbol><clipPath id="shape-download-mask"><path d="M0 0h24v17h-9v-6H9v6H0z"/></clipPath><symbol id="icon-download"><title id="label-download">Download Symbol</title><use xlink:href="#icon-cloud" clip-path="url(#shape-download-mask)"/><use xlink:href="#icon-short-bold-arr" transform="rotate(90 12 12)"/></symbol><clipPath id="shape-upload-mask"><path d="M0 0h24v22L12 10 0 22z"/></clipPath><symbol id="icon-upload"><title id="label-upload">Upload Symbol</title><use xlink:href="#icon-cloud" clip-path="url(#shape-upload-mask)"/><use xlink:href="#icon-short-bold-arr" x="-10" transform="rotate(-90 12 12)"/></symbol><symbol id="icon-download-alt"><title id="label-download-alt">Download Symbol</title><use xlink:href="#icon-receptacle"/><use xlink:href="#icon-short-bold-arr" x="-6" transform="rotate(90 12 12)"/></symbol><symbol id="icon-upload-alt"><title id="label-upload-alt">Upload Symbol</title><use xlink:href="#icon-receptacle"/><use xlink:href="#icon-short-bold-arr" x="-4" transform="rotate(-90 12 12)"/></symbol><symbol id="icon-return-arr"><title id="label-return-arr">Carriage Return</title><desc id="desc-return-arr">Arrow with corner clockwise.</desc><g transform="rotate(180 12 12)"><use xlink:href="#icon-arrhead"/><path d="M4 10h14v4H8v6H4z" id="shape-turned-shaft"/></g></symbol><symbol id="icon-return-arr-alt"><title id="label-return-arr-alt">Right Angle Arrow</title><desc id="desc-return-arr-alt">Arrow with corner clockwise.</desc><g transform="rotate(180 12 12)"><use xlink:href="#icon-chevron"/><use xlink:href="#shape-turned-shaft"/></g></symbol><symbol id="icon-chevrons"><title id="label-chevrons">Chevrons Shape</title><desc id="desc-chevrons">Double Angle Quotation Mark.</desc><use xlink:href="#icon-chevron" x="-10"/><use xlink:href="#icon-chevron"/></symbol><symbol id="icon-chevrons-alt"><title id="label-chevrons-alt">Chevrons Shape</title><desc id="desc-chevrons-alt">Double Angle Bracket.</desc><use xlink:href="#icon-chevron" x="-8"/><use xlink:href="#icon-chevron" x="-2"/></symbol></defs><defs><symbol id="icon-turn-arr"><title id="label-turn-arr">Turn Arrow Shape</title><path d="M7 22q0-10 11-10" stroke-width="4" fill="none"/><use xlink:href="#icon-small-arrhead"/></symbol><symbol id="icon-turn-arr-alt"><title id="label-turn-arr-alt">Turn Arrow Shape</title><path d="M7 22q0-10 13-10" stroke-width="4" fill="none"/><use xlink:href="#icon-small-chevron"/></symbol><symbol id="icon-fork-arr"><title id="label-fork-arr">Fork Arrow Symbol</title><g opacity=".4"><path d="M5 6h4v16H5z"/><use xlink:href="#icon-small-arrhead" y="-5" transform="rotate(-90 12 12)"/></g><use xlink:href="#icon-turn-arr"/></symbol><symbol id="icon-fork-arr-alt"><title id="label-fork-arr-alt">Fork Arrow Symbol</title><g opacity=".4"><path d="M5 4h4v18H5z"/><use xlink:href="#icon-small-chevron" y="-5" transform="rotate(-90 12 12)"/></g><use xlink:href="#icon-turn-arr-alt"/></symbol><symbol id="icon-slot-arr"><title id="label-slot-arr">Slot Arrow Symbol</title><use xlink:href="#icon-turn-arr" x="-2"/><path opacity=".6" d="M18 2h4v20h-4v-6l4-4-4-4z"/></symbol><symbol id="icon-slot-arr-alt"><title id="label-slot-arr-alt">Slot Arrow Symbol</title><use xlink:href="#icon-turn-arr-alt" x="-2"/><path opacity=".6" d="M18 2h4v20h-4v-5l4-5-4-5z"/></symbol></defs><defs><clipPath id="mask-refresh"><path d="M0 0h13v12h11v12H0z"/></clipPath><symbol id="icon-refresh"><title id="label-refresh">Refresh Symbol</title><desc>Clockwise triangle-headed open circle arrow.</desc><g transform="rotate(45 12 12)"><circle cx="12" cy="12" r="6.5" stroke-width="3" fill="none" clip-path="url(#mask-refresh)"/><use xlink:href="#icon-small-arrhead" x="-6" y="-6"/></g></symbol><symbol id="icon-play"><title id="label-play">Play Symbol</title><desc id="desc-play">Right pointing triangle.</desc><path d="M6 4l12 8-12 8z"/></symbol><symbol id="icon-step"><title id="label-step">Next Step Symbol</title><desc id="desc-step">Right pointing triangle to bar.</desc><use xlink:href="#icon-play" x="-2"/><path id="shape-play-wall" d="M16 4h4v16h-4z"/></symbol><symbol id="icon-forward"><title id="label-forward">Forward Symbol</title><desc id="desc-forward">Double right pointing triangle.</desc><use xlink:href="#icon-play" x="-4"/><use xlink:href="#icon-play" x="4"/></symbol><symbol id="icon-next"><title id="label-next">Jump To Next Symbol</title><desc id="desc-next">Double right pointing triangle to bar.</desc><use xlink:href="#icon-forward"/><use xlink:href="#shape-play-wall" x="2"/></symbol><symbol id="icon-pause"><title id="label-pause">Pause Symbol</title><desc id="desc-pause">Two vertical and parallel bars.</desc><path d="M6 4h5v16H6zM13 4h5v16h-5z"/></symbol><symbol id="icon-stop"><title id="label-stop">Stop Symbol</title><desc id="desc-stop">A square.</desc><use xlink:href="#icon-square"/></symbol><symbol id="icon-record"><title id="label-record">Record Symbol</title><desc>Round in a circle.</desc><circle cx="12" cy="12" r="6.5" stroke-width="3" fill="none"/><circle cx="12" cy="12" r="3"/></symbol><symbol id="icon-eject"><title id="label-eject">Eject Symbol</title><desc id="desc-eject">Top pointing triangle from bar.</desc><use xlink:href="#shape-play-wall" x="-12" transform="rotate(-90 12 12)"/><path d="M12 4l8 10H4z"/></symbol><symbol id="icon-fullscreen"><title id="label-fullscreen">Fullscreen Symbol</title><desc id="desc-fullscreen">A point surrounded in diagonal by two triangle to opposite direction.</desc><circle id="shape-screen-circle" cx="12" cy="12" r="2"/><path id="shape-fullscreen-arr" d="M14 4h6v6l-2-2-2 2-2-2 2-2z"/><use xlink:href="#shape-fullscreen-arr" transform="rotate(180 12 12)"/></symbol><symbol id="icon-compress"><title id="label-compress">Compress Symbol</title><desc id="desc-compress">A point surrounded in diagonal by two triangle directed to it.</desc><use id="shape-fullscreen-arr-inv" xlink:href="#shape-fullscreen-arr" transform="rotate(180 17 7)"/><use xlink:href="#shape-fullscreen-arr-inv" transform="rotate(180 12 12)"/><use xlink:href="#shape-screen-circle"/></symbol><clipPath id="mask-loop"><path d="M0 0h14v12H7v12H0z"/></clipPath><symbol id="icon-loop"><title id="label-loop">Loop Symbol</title><desc id="desc-loop">Two arrows rotating in clockwise direction.</desc><g id="shape-loop-arr"><rect x="5.5" y="7.5" width="15" height="9" stroke-width="3" fill="none" rx="4" stroke-linejoin="round" stroke-linecap="round" clip-path="url(#mask-loop)"/><use xlink:href="#icon-tiny-arrhead" x="-6" y="-4"/></g><use xlink:href="#shape-loop-arr" transform="rotate(180 12 12)"/></symbol><symbol id="icon-shuffle"><title id="label-shuffle">Shuffle Symbol</title><desc id="desc-shuffle">Two plaited arrows in same direction.</desc><g id="shape-scissor-arr"><path stroke-width="3" stroke-linejoin="round" fill="none" d="M4 16h4l6-8h4"/><use xlink:href="#icon-tiny-arrhead" x="-2" y="-4"/></g><use xlink:href="#shape-scissor-arr" transform="matrix(1 0 0 -1 0 24)"/></symbol><symbol id="icon-controls"><title id="label-controls">Control Panel Symbol</title><g opacity=".6"><rect x="6" y="4" width="2" height="16" rx="1"/><rect x="11" y="4" width="2" height="16" rx="1"/><rect x="16" y="4" width="2" height="16" rx="1"/></g><rect x="5" y="7" width="4" height="3" rx="1"/><rect x="10" y="14" width="4" height="3" rx="1"/><rect x="15" y="10" width="4" height="3" rx="1"/></symbol><symbol id="icon-volume"><title id="label-volume">Speaker Symbol</title><rect x="2" y="9" width="5" height="6" rx="1"/><use xlink:href="#icon-large-arrhead" transform="matrix(-1 0 0 1 24 0)"/></symbol><symbol id="icon-volume-mute"><title id="label-volume-mute">Speaker Symbol: Switch Off</title><use xlink:href="#icon-volume"/><g opacity=".6" stroke-width="2" stroke-linecap="round"><path d="M15 9l6 6M21 9l-6 6"/></g></symbol><symbol id="icon-volume-sound"><title id="label-volume-sound">Speaker Symbol: Switch On</title><use xlink:href="#icon-volume"/><g opacity=".6" stroke-width="1.4" stroke-linecap="round" fill="none"><path d="M15 9q3 3 0 6M17 7q5 5 0 10"/></g></symbol></defs><defs><symbol id="icon-align-center"><title id="label-align-center">Align Center Symbol</title><path id="shape-align-r1" stroke-width="2" d="M8 6h8"/><path id="shape-align-r2" stroke-width="2" d="M4 10h16"/><path id="shape-align-r3" stroke-width="2" d="M6 14h12"/><path id="shape-align-r4" stroke-width="2" d="M4 18h16"/></symbol><symbol id="icon-align-left"><title id="label-align-left">Align Left Symbol</title><use xlink:href="#shape-align-r1" x="-4"/><use xlink:href="#shape-align-r2"/><use xlink:href="#shape-align-r3" x="-2"/><use xlink:href="#shape-align-r4"/></symbol><symbol id="icon-align-right"><title id="label-align-right">Align Right Symbol</title><use xlink:href="#icon-align-left" transform="matrix(-1 0 0 1 24 0)"/></symbol><symbol id="icon-align-justify"><title id="label-align-justify">Align Justify Symbol</title><path stroke-width="2" d="M4 6h16M4 10h16M4 14h16M4 18h16"/></symbol><symbol id="icon-indent"><title id="label-indent">Indent Symbol</title><g id="shape-indent"><use xlink:href="#shape-align-r2" y="-4" opacity=".8"/><use xlink:href="#shape-align-r1" x="4" y="4"/><use xlink:href="#shape-align-r1" x="4" y="8"/><use xlink:href="#shape-align-r4" opacity=".8"/></g><use xlink:href="#icon-tiny-arrhead" x="-14"/></symbol><symbol id="icon-outdent"><title id="label-outdent">Outdent Symbol</title><use xlink:href="#shape-indent"/><use xlink:href="#icon-tiny-arrhead" x="-14" transform="matrix(-1 0 0 1 12 0)"/></symbol><symbol id="icon-grid"><title id="label-grid">Grid Symbol</title><g id="shape-grid-row"><path id="shape-grid-item" d="M4 4h4v4H4z"/><use xlink:href="#shape-grid-item" x="6"/><use xlink:href="#shape-grid-item" x="12"/></g><use xlink:href="#shape-grid-row" y="6"/><use xlink:href="#shape-grid-row" y="12"/></symbol><symbol id="icon-list"><title id="label-list">Unordored List Symbol</title><g id="shape-ul"><path d="M4 5h2v2H4z"/><use id="shape-li" xlink:href="#shape-align-r3" x="2" y="-8"/></g><use xlink:href="#shape-ul" y="4"/><use xlink:href="#shape-ul" y="8"/><use xlink:href="#shape-ul" y="12"/></symbol><symbol id="icon-ordored-list"><title id="label-ordored-list">Ordored List Symbol</title><use xlink:href="#shape-li"/><text x="4" y="7" font-size="4" textLength="3" font-family="verdana" lengthAdjust="spacingAndGlyphs"><tspan>1</tspan></text><use xlink:href="#shape-li" y="4"/><text x="4" y="11" font-size="4" textLength="3" font-family="verdana" lengthAdjust="spacingAndGlyphs"><tspan>2</tspan></text><use xlink:href="#shape-li" y="8"/><text x="4" y="15" font-size="4" textLength="3" font-family="verdana" lengthAdjust="spacingAndGlyphs"><tspan>3</tspan></text><use xlink:href="#shape-li" y="12"/><text x="4" y="19" font-size="4" textLength="3" font-family="verdana" lengthAdjust="spacingAndGlyphs"><tspan>4</tspan></text></symbol><symbol id="icon-bold"><title id="label-bold">Font Weight Symbol: Bold</title><text x="12" y="18" font-size="18" textLength="16" lengthAdjust="spacingAndGlyphs" font-family="Verdana, sans-serif" font-weight="bold" pointer-events="none" text-anchor="middle"><tspan>B</tspan></text></symbol><symbol id="icon-italic"><title id="label-italic">Text Transform Symbol: Italic</title><text x="12" y="18" font-size="18" textLength="12" lengthAdjust="spacingAndGlyphs" transform="translate(4) skewX(-18)" font-family="Verdana, sans-serif" pointer-events="none" text-anchor="middle"><tspan>I</tspan></text></symbol><symbol id="icon-underline"><title id="label-underline">Text Decoration Symbol: underline</title><text x="12" y="18" font-size="18" textLength="14" lengthAdjust="spacingAndGlyphs" font-family="Verdana, sans-serif" font-weight="bold" pointer-events="none" text-anchor="middle" text-decoration="underline"><tspan>U</tspan></text></symbol><symbol id="icon-font"><title id="label-font">Font Symbol</title><text x="12" y="18" font-size="18" textLength="16" lengthAdjust="spacingAndGlyphs" font-family="Verdana, sans-serif" font-weight="bold" pointer-events="none" text-anchor="middle"><tspan>A</tspan></text></symbol><symbol id="icon-headline"><title id="label-headline">Headline Symbol</title><text x="12" y="18" font-size="18" textLength="16" lengthAdjust="spacingAndGlyphs" font-family="Verdana, sans-serif" font-weight="bold" pointer-events="none" text-anchor="middle"><tspan>H</tspan></text></symbol><symbol id="icon-markdown"><title id="label-markdown">Markdown Symbol</title><text x="7" y="18" font-size="14" textLength="12" lengthAdjust="spacingAndGlyphs" font-family="Verdana, sans-serif" font-weight="bold" pointer-events="none" text-anchor="middle"><tspan>M</tspan></text><use xlink:href="#icon-sarr" x="-4" y="-6" transform="rotate(90 12 12)"/></symbol><symbol id="icon-quote"><title id="label-quote">Quote Symbol</title><g id="shape-quote"><use xlink:href="#icon-small-chevron"/><use xlink:href="#icon-small-chevron" x="-4"/></g><use xlink:href="#shape-quote" transform="rotate(180 12 12)"/></symbol><symbol id="icon-code"><title id="label-code">Source Code Symbol</title><path stroke-width="2" stroke-linecap="round" d="M8 7L5 17"/><path stroke-width="2" fill="none" stroke-linecap="round" stroke-linejoin="round" d="M12 7l5 5-5 5"/></symbol><symbol id="icon-link"><title id="label-link">Link Symbol</title><g transform="rotate(-45 12 12)" stroke-width="2"><rect x="4" y="9" width="8" height="6" rx="2" fill="none"/><rect x="12" y="9" width="8" height="6" rx="2" fill="none"/><path stroke-linecap="round" d="M8 12h8"/></g></symbol><clipPath id="mask-unlink"><path d="M0 0h10v24H0zM14 0h10v24H14z"/></clipPath><symbol id="icon-unlink"><title id="label-unlink">Unlink Symbol</title><g transform="rotate(-45 12 12)" stroke-width="2"><rect x="4" y="9" width="16" height="6" rx="2" fill="none" clip-path="url(#mask-unlink)"/><path stroke-linecap="round" d="M8 12h8"/></g></symbol><symbol id="icon-paperclip"><title id="label-paperclip">Paperclip Symbol</title><path d="M12 4.93L4.93 12q-1.415 4.243.706 6.364 2.12 2.12 6.364.707L19.07 12q2.83-2.828-.706-6.364-1.414-1.414-2.828 0L9.172 12q-2.122 2.12-.708 3.536Q9.88 16.95 12 14.828l4.95-4.95" stroke-linecap="round" stroke-width="2" fill="none"/></symbol><symbol id="icon-save"><title id="label-save">Floppy Disk Symbol</title><path d="M4 4h15l1 1v15H4zm4 1h5v4h3V5h1v5H8z" fill-rule="evenodd"/><path opacity=".2" d="M8 5h5v4h3V5h1v5H8z"/><path fill-opacity=".2" d="M6 12h12v7H6z"/></symbol><symbol id="icon-scissors"><title id="label-scissors">Scissors Symbol</title><g id="shape-scissor" transform="rotate(-30 12 12)"><path d="M13 2v14l-3 4V6q0-4 3-4z"/><circle cx="14" cy="20" r="3" stroke-width="2" fill="none"/></g><use xlink:href="#shape-scissor" transform="matrix(-1 0 0 1 24 0)"/></symbol><symbol id="icon-picture"><title id="label-picture">Picture Symbol</title><g fill-opacity=".4"><path d="M3 10l4-4 5 5 2-2 8 8H3zm1 0l3-3 3 3-1 1-2-1-2 1zm10 0l3 3-3-1-3 1z" fill-rule="evenodd"/><circle cx="17.5" cy="7" r="1.5"/></g><path d="M2 2h20v20H2zm2 2h16v12H4z" fill-rule="evenodd"/></symbol><symbol id="icon-clipboard"><title id="label-clipboard">Clipboard Symbol</title><path d="M4 3h16v19H4zm2 1h12v16H6" fill-rule="evenodd"/><path d="M9 2h6l1 4H8zM7 8.5h10M7 11.5h10M7 14.5h10M7 17.5h7"/></symbol><clipPath id="mask-select"><path d="M0 0h24v11H11v13H0z"/></clipPath><symbol id="icon-select"><title id="label-select">Cursor Pointer Symbol</title><path stroke-width="2" fill="none" opacity=".6" clip-path="url(#mask-select)" d="M5 5h14v14H5z"/><path d="M11 11l10 4-2 2 3 3-2 2-3-3-2 2z"/></symbol></defs><defs><symbol id="icon-minus"><title id="label-minus">Minus or Reduce Symbol</title><rect x="2" y="10" width="20" height="4" rx="1"/></symbol><symbol id="icon-crux"><title id="label-crux">Crux Symbol</title><use xlink:href="#icon-minus"/><use xlink:href="#icon-minus" transform="rotate(90 12 12)"/></symbol><symbol id="icon-close"><title id="label-close">Close Symbol</title><use xlink:href="#icon-crux" transform="rotate(45 12 12)"/></symbol><symbol id="icon-menu"><title id="label-menu">Menu Symbol</title><desc id="desc-menu">3 horizontal stacked bars</desc><use xlink:href="#icon-minus"/><use xlink:href="#icon-minus" y="-6"/><use xlink:href="#icon-minus" y="6"/></symbol><symbol id="icon-home"><title id="label-home">Home Symbol</title><path d="M12 6l7 6v8h-5v-6h-4v6H5v-8z"/><path stroke-width="2" stroke-linecap="round" stroke-linejoin="round" fill="none" d="M3 11l9-8 9 8"/></symbol><symbol id="icon-mail"><title id="label-mail">Envelope Symbol</title><path id="shape-mail-flap" d="M2 5h20v2l-10 5L2 7z"/><path id="shape-mail-body" d="M2 9l10 5 10-5v11H2z"/></symbol><symbol id="icon-opened-mail"><title id="label-opened-mail">Opened Envelope Symbol</title><use xlink:href="#shape-mail-flap" transform="rotate(180 12 7)"/><use xlink:href="#shape-mail-body"/></symbol><symbol id="icon-search"><title id="label-search">Magnifying Glass Symbol</title><circle cx="9" cy="9" r="5" stroke-width="2" fill="none"/><path d="M12 12h2l4 4-2 2-4-4z"/></symbol><symbol id="icon-book"><title id="label-book">Book Symbol</title><path fill-rule="evenodd" d="M4 4q0-2 2-2h12v17H6q-1 1 0 2h13V3q1 0 1 1v17q0 1-1 1H6q-2 0-2-2zm6 1h4q1 0 1 1t-1 1h-4Q9 7 9 6t1-1z"/></symbol><symbol id="icon-opened-book"><title id="label-opened-book">Opened Book Symbol</title><g id="shape-book-side"><path fill-rule="evenodd" d="M4 7v11q4-4 8 0L11 6l1 1v11l-8 2q-2 0-2-2V9q0-2 2-2z"/><path id="shape-book-border" d="M3 8q2-3 5-3 2 0 4 2" fill="none" stroke-width=".75"/><g stroke-opacity=".4"><use id="shape-book-line" xlink:href="#shape-book-border" y="3" transform="matrix(.6 0 0 .6 3 2.4)"/><use xlink:href="#shape-book-line" y="3"/><use xlink:href="#shape-book-line" y="6"/></g></g><use xlink:href="#shape-book-side" transform="matrix(-1 0 0 1 24 0)"/></symbol><symbol id="icon-fork"><title id="label-fork">Fork Symbol</title><g transform="translate(.5)"><circle id="shape-node" cx="7" cy="5" r="2" fill="none" stroke-width="1.25"/><use xlink:href="#shape-node" x="8" y="2"/><use xlink:href="#shape-node" y="14"/><path fill="none" stroke-width="3" d="M7 7v10M7 16q1-3 5-3 3 0 3-4"/></g></symbol></defs></svg>
